<svg width="70" height="76" viewBox="0 0 70 76" fill="none" xmlns="http://www.w3.org/2000/svg">
<path d="M0 10C0 4.47715 4.47715 0 10 0H60C65.5229 0 70 4.47715 70 10V66C70 71.5229 65.5229 76 60 76H10C4.47715 76 0 71.5229 0 66V10Z" fill="#96BB7C"/>
<g clip-path="url(#clip0_2636_3169)">
<g clip-path="url(#clip1_2636_3169)">
<path d="M20.7148 41.9999C20.7148 42.3155 20.9707 42.5714 21.2863 42.5714H48.7148C49.0304 42.5714 49.2863 42.3155 49.2863 41.9999V24.2856H20.7148V41.9999Z" fill="white"/>
<path d="M50.4286 22H19.5714C19.2559 22 19 22.2559 19 22.5714C19 22.887 19.2559 23.1429 19.5714 23.1429H50.4286C50.7441 23.1429 51 22.887 51 22.5714C51 22.2559 50.7441 22 50.4286 22Z" fill="white"/>
<path d="M39.572 51.7144H35.572V44.8572H36.1434C36.459 44.8572 36.7148 44.6014 36.7148 44.2858V43.7144H33.2863V44.2858C33.2863 44.6014 33.5421 44.8572 33.8577 44.8572H34.4291V51.7144H30.4291C29.4824 51.7144 28.7148 52.4819 28.7148 53.4286V54.0001H41.2863V53.4286C41.2863 52.4819 40.5187 51.7144 39.572 51.7144Z" fill="white"/>
</g>
</g>
<defs>
<clipPath id="clip0_2636_3169">
<rect width="32" height="32" fill="white" transform="translate(19 22)"/>
</clipPath>
<clipPath id="clip1_2636_3169">
<rect width="32" height="32" fill="white" transform="translate(19 22)"/>
</clipPath>
</defs>
</svg>
