<svg width="70" height="76" viewBox="0 0 70 76" fill="none" xmlns="http://www.w3.org/2000/svg">
<path d="M0 10C0 4.47715 4.47715 0 10 0H60C65.5229 0 70 4.47715 70 10V66C70 71.5229 65.5229 76 60 76H10C4.47715 76 0 71.5229 0 66V10Z" fill="#96BB7C"/>
<g clip-path="url(#clip0_2636_3180)">
<g clip-path="url(#clip1_2636_3180)">
<path d="M32.5947 34.4947C32.6323 34.465 32.6716 34.4384 32.7105 34.4104C32.8096 34.339 32.9131 34.2745 33.0207 34.2172C33.0629 34.1941 33.1038 34.1711 33.1472 34.1508C34.1515 33.663 35.3506 33.8274 36.1867 34.5671C36.2308 34.6056 36.2668 34.6492 36.3085 34.6898C36.3925 34.7708 36.4716 34.8567 36.5451 34.9473C36.5868 34.9994 36.6217 35.0557 36.6576 35.1108C36.7175 35.1976 36.7726 35.2876 36.8223 35.3806C36.8544 35.4413 36.8824 35.5031 36.9099 35.5662C36.951 35.6603 36.9867 35.7569 37.0172 35.8549C37.0375 35.9208 37.0567 35.9856 37.0735 36.0523C37.0965 36.1546 37.1138 36.2578 37.1253 36.3621C37.133 36.4272 37.1426 36.4914 37.1459 36.557C37.15 36.6715 37.147 36.7859 37.1371 36.9001C37.133 36.9561 37.1336 37.0124 37.1264 37.0686C37.1036 37.2328 37.0658 37.3947 37.0139 37.552C37.0139 37.5605 37.0112 37.5684 37.0084 37.5767L38.5177 38.4481L41.3282 33.5758L25.7539 24.582L22.9434 29.4538L32.2417 34.8213C32.3496 34.7024 32.4679 34.5932 32.5947 34.4947Z" fill="white"/>
<path d="M20.1543 29.7883L24.6512 22L25.6241 22.5618L21.1273 30.3501L20.1543 29.7883Z" fill="white"/>
<path d="M45.4883 39.872L46.0507 38.8979L49.9448 41.1464L49.3824 42.1205L45.4883 39.872Z" fill="white"/>
<path d="M40.0586 38.0343L41.7449 35.1143L45.639 37.363L43.9527 40.283L40.0586 38.0343Z" fill="white"/>
<path d="M35.6707 37.9645C35.6449 37.917 35.6122 37.8736 35.5735 37.8358C35.6622 37.7438 35.7399 37.6417 35.8046 37.5317C36.2688 36.7247 35.9946 35.6947 35.1907 35.2253C35.0751 35.1605 34.9521 35.1098 34.8248 35.0735C34.7872 35.0623 34.7485 35.0554 34.7125 35.0469C34.62 35.0269 34.5259 35.0145 34.4315 35.0099C34.3909 35.0099 34.3511 35.0049 34.3104 35.006C34.1762 35.009 34.0428 35.028 33.913 35.0623C33.3402 35.213 32.8893 35.6551 32.7276 36.2252C32.5659 36.7953 32.7174 37.4082 33.1261 37.8374C33.0877 37.8747 33.0553 37.9176 33.0295 37.9645L25.4128 53.1862C25.2742 53.4642 25.387 53.8018 25.6647 53.9407C25.9425 54.0793 26.2804 53.9667 26.419 53.6887L33.7854 38.9504V53.4376C33.7854 53.748 34.0371 53.9997 34.3475 53.9997C34.6579 53.9997 34.9096 53.748 34.9096 53.4376V38.9548L42.2733 53.6887C42.4122 53.9667 42.7497 54.0793 43.0278 53.9407C43.3055 53.8018 43.4183 53.4642 43.2795 53.1862L35.6707 37.9645Z" fill="white"/>
</g>
</g>
<defs>
<clipPath id="clip0_2636_3180">
<rect width="32" height="32" fill="white" transform="translate(19 22)"/>
</clipPath>
<clipPath id="clip1_2636_3180">
<rect width="32" height="32" fill="white" transform="translate(19 22)"/>
</clipPath>
</defs>
</svg>
